{"title":"Chijin no ai aka Love for an Idiot (1967) - Yasuzô Masumur","uid":9784931,"size":1434943279,"categoryP":"video","categoryS":"movies","magnet":"?xt=urn:btih:7d9b2bca673ececc9422466a9c1e5e47cd91e6fe&amp;dn=Chijin+no+ai+aka+Love+for+an+Idiot+%281967%29+-+Yasuz%26ocirc%3B+Masumur&amp;tr=udp%3A%2F%2Ftracker.openbittorrent.com%3A80&amp;tr=udp%3A%2F%2Fopen.demonii.com%3A1337&amp;tr=udp%3A%2F%2Ftracker.coppersurfer.tk%3A6969&amp;tr=udp%3A%2F%2Fexodus.desync.com%3A6969","seeders":1,"leechers":0,"uploader":"cavallone","files":1,"time":1395150125,"description":"Plot: An updated adaptation of Tanizaki's 1924 novel Naomi about a middle-aged factory engineer who trains, marries, and ultimately loses a teenage bride after she turns him into a slave to her whims. The intensity of his desire makes him a prototypical Masumura lunatic, and the creepy, quasi-abstract industrial landscapes evoke those of Antonioni - though similar shots are found in Masumura's 1959 Overflow, so any direct influence from Red Desert seems unlikely.\n\n\nRip specs:\n\n\nFormat                                   : Matroska\nFormat version                           : Version 2\nFile size                                : 1.34 GiB\nDuration                                 : 1h 32mn\nOverall bit rate                         : 2 068 Kbps\nWriting application                      : HandBrake 0.9.9\nWriting library                          : libmkv 0.6.5\n\nVideo\nID                                       : 1\nFormat                                   : AVC\nFormat/Info                              : Advanced Video Codec\nFormat profile                           : &lt;a class=&quot;__cf_email__&quot; href=&quot;/cdn-cgi/l/email-protection&quot; data-cfemail=&quot;e8a0818f80a8a4dbc6d8&quot;&gt;[email&amp;#160;protected]&lt;/a&gt;&lt;script cf-hash='f9e31' type=&quot;text/javascript&quot;&gt;\n/* &lt;![CDATA[ */!function(){try{var t=&quot;currentScript&quot;in document?document.currentScript:function(){for(var t=document.getElementsByTagName(&quot;script&quot;),e=t.length;e--;)if(t[e].getAttribute(&quot;cf-hash&quot;))return t[e]}();if(t&amp;&amp;t.previousSibling){var e,r,n,i,c=t.previousSibling,a=c.getAttribute(&quot;data-cfemail&quot;);if(a){for(e=&quot;&quot;,r=parseInt(a.substr(0,2),16),n=2;a.length-n;n+=2)i=parseInt(a.substr(n,2),16)^r,e+=String.fromCharCode(i);e=document.createTextNode(e),c.parentNode.replaceChild(e,c)}}}catch(u){}}();/* ]]&gt; */&lt;/script&gt;\nFormat settings, CABAC                   : Yes\nFormat settings, ReFrames                : 4 frames\nCodec ID                                 : V_MPEG4/ISO/AVC\nDuration                                 : 1h 32mn\nBit rate                                 : 1 865 Kbps\nWidth                                    : 716 pixels\nHeight                                   : 364 pixels\nDisplay aspect ratio                     : 2.35:1\nOriginal display aspect ratio            : 2.35:1\nFrame rate mode                          : Constant\nFrame rate                               : 23.976 fps\nColor space                              : YUV\nChroma subsampling                       : 4:2:0\nBit depth                                : 8 bits\nScan type                                : Progressive\nBits/(Pixel*Frame)                       : 0.298\nStream size                              : 1.19 GiB (89%)\nWriting library                          : x264 core 130 r2273 b3065e6\nEncoding settings                        : cabac=1 / ref=3 / deblock=1:-2:-2 / analyse=0x3:0x113 / me=hex / subme=7 / psy=1 / psy_rd=1.00:0.00 / mixed_ref=1 / me_range=16 / chroma_me=1 / trellis=2 / 8x8dct=1 / cqm=0 / deadzone=21,11 / fast_pskip=0 / chroma_qp_offset=-2 / threads=1 / lookahead_threads=1 / sliced_threads=0 / nr=0 / decimate=1 / interlaced=0 / bluray_compat=0 / constrained_intra=0 / bframes=3 / b_pyramid=2 / b_adapt=2 / b_bias=0 / direct=3 / weightb=1 / open_gop=0 / weightp=2 / keyint=240 / keyint_min=24 / scenecut=40 / intra_refresh=0 / rc_lookahead=60 / rc=2pass / mbtree=1 / bitrate=1865 / ratetol=1.0 / qcomp=0.60 / qpmin=0 / qpmax=69 / qpstep=4 / cplxblur=20.0 / qblur=0.5 / ip_ratio=1.40 / aq=1:1.00\nLanguage                                 : English\nDefault                                  : Yes\nForced                                   : No\nColor primaries                          : BT.601 NTSC\nTransfer characteristics                 : BT.709\nMatrix coefficients                      : BT.601\n\nAudio\nID                                       : 2\nFormat                                   : AC-3\nFormat/Info                              : Audio Coding 3\nMode extension                           : CM (complete main)\nFormat settings, Endianness              : Big\nCodec ID                                 : A_AC3\nDuration                                 : 1h 32mn\nBit rate mode                            : Constant\nBit rate                                 : 192 Kbps\nChannel(s)                               : 2 channels\nChannel positions                        : Front: L R\nSampling rate                            : 48.0 KHz\nBit depth                                : 16 bits\nCompression mode                         : Lossy\nStream size                              : 127 MiB (9%)\nLanguage                                 : Japanese\nDefault                                  : Yes\nForced                                   : No\n\nText\nID                                       : 3\nFormat                                   : VobSub\nCodec ID                                 : S_VOBSUB\nCodec ID/Info                            : The same subtitle format used on DVDs\nLanguage                                 : English\nDefault                                  : Yes\nForced                                   : No\n\nMenu\n00:00:00.000                             : Chapter 1\n00:07:14.350                             : Chapter 2\n00:09:28.985                             : Chapter 3\n00:16:28.404                             : Chapter 4\n00:23:03.548                             : Chapter 5\n00:32:34.160                             : Chapter 6\n00:40:26.632                             : Chapter 7\n00:46:27.993                             : Chapter 8\n00:54:31.351                             : Chapter 9\n01:03:31.724                             : Chapter 10\n01:08:30.189                             : Chapter 11\n01:14:30.674                             : Chapter 12\n01:18:30.914                             : Chapter 13\n01:24:31.274                             : Chapter 14\n01:27:00.131                             : Chapter 15\n01:32:17.448                             : Chapter 16\n01:32:28.501                             : Chapter 17\n\n\nMy rip, emjoy!","torrent":{"xt":"urn:btih:7d9b2bca673ececc9422466a9c1e5e47cd91e6fe","amp;dn":"Chijin+no+ai+aka+Love+for+an+Idiot+%281967%29+-+Yasuz%26ocirc%3B+Masumur","amp;tr":["udp%3A%2F%2Ftracker.openbittorrent.com%3A80","udp%3A%2F%2Fopen.demonii.com%3A1337","udp%3A%2F%2Ftracker.coppersurfer.tk%3A6969","udp%3A%2F%2Fexodus.desync.com%3A6969"],"infoHash":"7d9b2bca673ececc9422466a9c1e5e47cd91e6fe","infoHashBuffer":{"type":"Buffer","data":[125,155,43,202,103,62,206,204,148,34,70,106,156,30,94,71,205,145,230,254]},"announce":[],"urlList":[]}}